<svg width="2017" height="1274" xmlns="http://www.w3.org/2000/svg" xmlns:xlink="http://www.w3.org/1999/xlink" overflow="hidden"><defs><clipPath id="clip0"><rect x="1145" y="719" width="2017" height="1274"/></clipPath><clipPath id="clip1"><rect x="1146" y="1049" width="264" height="264"/></clipPath><clipPath id="clip2"><rect x="1146" y="1049" width="264" height="264"/></clipPath><clipPath id="clip3"><rect x="1146" y="1049" width="264" height="264"/></clipPath><clipPath id="clip4"><rect x="2108" y="1797" width="824" height="194"/></clipPath><clipPath id="clip5"><rect x="2108" y="1797" width="824" height="194"/></clipPath><clipPath id="clip6"><rect x="2108" y="1797" width="824" height="194"/></clipPath><clipPath id="clip7"><path d="M2211.41 1799.68 2211.41 1861.22 2181.77 1861.22 2181.77 1891.99 2156.95 1891.99C2156.84 1892.88 2156.76 1893.78 2156.67 1894.67 2155.12 1911.43 2158.07 1926.9 2164.84 1940.12L2167.11 1944.17C2168.48 1946.6 2170.07 1948.89 2171.74 1951.11 2173.42 1953.34 2174.02 1954.57 2175.07 1956.05 2192.98 1976.03 2219.67 1985.65 2250.49 1985.65 2318.74 1985.65 2376.67 1955.63 2402.3 1888.19 2420.49 1890.04 2437.93 1885.41 2445.89 1870 2433.22 1862.74 2416.94 1865.07 2407.56 1869.75L2432.41 1799.68 2335.39 1861.22 2304.39 1861.22 2304.39 1799.68Z" fill-rule="nonzero" clip-rule="nonzero"/></clipPath><clipPath id="clip8"><path d="M2211.41 1799.68 2211.41 1861.22 2181.77 1861.22 2181.77 1891.99 2156.95 1891.99C2156.84 1892.88 2156.76 1893.78 2156.67 1894.67 2155.12 1911.43 2158.07 1926.9 2164.84 1940.12L2167.11 1944.17C2168.48 1946.6 2170.07 1948.89 2171.74 1951.11 2173.42 1953.34 2174.02 1954.57 2175.07 1956.05 2192.98 1976.03 2219.67 1985.65 2250.49 1985.65 2318.74 1985.65 2376.67 1955.63 2402.3 1888.19 2420.49 1890.04 2437.93 1885.41 2445.89 1870 2433.22 1862.74 2416.94 1865.07 2407.56 1869.75L2432.41 1799.68 2335.39 1861.22 2304.39 1861.22 2304.39 1799.68Z" fill-rule="nonzero" clip-rule="nonzero"/></clipPath><clipPath id="clip9"><path d="M2211.41 1799.68 2211.41 1861.22 2181.77 1861.22 2181.77 1891.99 2156.95 1891.99C2156.84 1892.88 2156.76 1893.78 2156.67 1894.67 2155.12 1911.43 2158.07 1926.9 2164.84 1940.12L2167.11 1944.17C2168.48 1946.6 2170.07 1948.89 2171.74 1951.11 2173.42 1953.34 2174.02 1954.57 2175.07 1956.05 2192.98 1976.03 2219.67 1985.65 2250.49 1985.65 2318.74 1985.65 2376.67 1955.63 2402.3 1888.19 2420.49 1890.04 2437.93 1885.41 2445.89 1870 2433.22 1862.74 2416.94 1865.07 2407.56 1869.75L2432.41 1799.68 2335.39 1861.22 2304.39 1861.22 2304.39 1799.68Z" fill-rule="nonzero" clip-rule="nonzero"/></clipPath><clipPath id="clip10"><path d="M2211.41 1799.68 2211.41 1861.22 2181.77 1861.22 2181.77 1891.99 2156.95 1891.99C2156.84 1892.88 2156.76 1893.78 2156.67 1894.67 2155.12 1911.43 2158.07 1926.9 2164.84 1940.12L2167.11 1944.17C2168.48 1946.6 2170.07 1948.89 2171.74 1951.11 2173.42 1953.34 2174.02 1954.57 2175.07 1956.05 2192.98 1976.03 2219.67 1985.65 2250.49 1985.65 2318.74 1985.65 2376.67 1955.63 2402.3 1888.19 2420.49 1890.04 2437.93 1885.41 2445.89 1870 2433.22 1862.74 2416.94 1865.07 2407.56 1869.75L2432.41 1799.68 2335.39 1861.22 2304.39 1861.22 2304.39 1799.68Z" fill-rule="nonzero" clip-rule="nonzero"/></clipPath><clipPath id="clip11"><path d="M2211.41 1799.68 2211.41 1861.22 2181.77 1861.22 2181.77 1891.99 2156.95 1891.99C2156.84 1892.88 2156.76 1893.78 2156.67 1894.67 2155.12 1911.43 2158.07 1926.9 2164.84 1940.12L2167.11 1944.17C2168.48 1946.6 2170.07 1948.89 2171.74 1951.11 2173.42 1953.34 2174.02 1954.57 2175.07 1956.05 2192.98 1976.03 2219.67 1985.65 2250.49 1985.65 2318.74 1985.65 2376.67 1955.63 2402.3 1888.19 2420.49 1890.04 2437.93 1885.41 2445.89 1870 2433.22 1862.74 2416.94 1865.07 2407.56 1869.75L2432.41 1799.68 2335.39 1861.22 2304.39 1861.22 2304.39 1799.68Z" fill-rule="nonzero" clip-rule="nonzero"/></clipPath></defs><g clip-path="url(#clip0)" transform="translate(-1145 -719)"><rect x="1988.5" y="725.5" width="1167" height="1025" stroke="#7F7F7F" stroke-width="4.58333" stroke-linecap="butt" stroke-linejoin="miter" stroke-miterlimit="8" stroke-opacity="1" fill="#F2F2F2" fill-opacity="1"/><rect x="2337.5" y="842.5" width="438" height="207" stroke="#2F528F" stroke-width="4.58333" stroke-linecap="butt" stroke-linejoin="miter" stroke-miterlimit="8" stroke-opacity="1" fill="#4472C4" fill-opacity="1"/><text fill="#FFFFFF" fill-opacity="1" font-family="Calibri,Calibri_MSFontService,sans-serif" font-style="normal" font-variant="normal" font-weight="400" font-stretch="normal" font-size="73" text-anchor="start" direction="ltr" writing-mode="lr-tb" unicode-bidi="normal" text-decoration="none" transform="matrix(1 0 0 1 2445.89 927)">Jupyter<tspan fill="#FFFFFF" fill-opacity="1" font-family="Calibri,Calibri_MSFontService,sans-serif" font-style="normal" font-variant="normal" font-weight="400" font-stretch="normal" font-size="73" text-anchor="start" direction="ltr" writing-mode="lr-tb" unicode-bidi="normal" text-decoration="none" x="-38.3855" y="88">Notebook</tspan></text><rect x="2337.5" y="1339.5" width="438" height="208" stroke="#2F528F" stroke-width="4.58333" stroke-linecap="butt" stroke-linejoin="miter" stroke-miterlimit="8" stroke-opacity="1" fill="#4472C4" fill-opacity="1"/><text fill="#FFFFFF" fill-opacity="1" font-family="Calibri,Calibri_MSFontService,sans-serif" font-style="normal" font-variant="normal" font-weight="400" font-stretch="normal" font-size="73" text-anchor="start" direction="ltr" writing-mode="lr-tb" unicode-bidi="normal" text-decoration="none" transform="matrix(1 0 0 1 2445.32 1424)">Apache <tspan fill="#FFFFFF" fill-opacity="1" font-family="Calibri,Calibri_MSFontService,sans-serif" font-style="normal" font-variant="normal" font-weight="400" font-stretch="normal" font-size="73" text-anchor="start" direction="ltr" writing-mode="lr-tb" unicode-bidi="normal" text-decoration="none" x="37.2395" y="88">Atlas</tspan></text><rect x="1935.5" y="893.5" width="106" height="106" stroke="#000000" stroke-width="4.58333" stroke-linecap="butt" stroke-linejoin="miter" stroke-miterlimit="8" stroke-opacity="1" fill="#000000" fill-opacity="1"/><rect x="1931.5" y="1390.5" width="106" height="106" stroke="#000000" stroke-width="4.58333" stroke-linecap="butt" stroke-linejoin="miter" stroke-miterlimit="8" stroke-opacity="1" fill="#000000" fill-opacity="1"/><text fill="#000000" fill-opacity="1" font-family="Arial,Arial_MSFontService,sans-serif" font-style="normal" font-variant="normal" font-weight="400" font-stretch="normal" font-size="83" text-anchor="start" direction="ltr" writing-mode="lr-tb" unicode-bidi="normal" text-decoration="none" transform="matrix(1 0 0 1 1413.07 1599)">localhost: <tspan fill="#000000" fill-opacity="1" font-family="Arial,Arial_MSFontService,sans-serif" font-style="normal" font-variant="normal" font-weight="400" font-stretch="normal" font-size="83" text-anchor="start" direction="ltr" writing-mode="lr-tb" unicode-bidi="normal" text-decoration="none" x="371.25" y="0">21000</tspan></text><g clip-path="url(#clip1)"><g clip-path="url(#clip2)"><g clip-path="url(#clip3)"><path d="M1361.88 1281.72 1361.88 1303.23C1361.88 1305.66 1359.92 1307.62 1357.5 1307.62L1197.5 1307.62C1195.08 1307.62 1193.12 1305.66 1193.12 1303.23L1193.12 1281.72C1193.12 1265.18 1202.96 1250.93 1217.1 1244.5 1211.33 1239.91 1202.53 1233.74 1196.14 1220.47 1187.22 1202 1188.75 1180.22 1200.1 1163.17 1206.27 1153.91 1209.56 1143.04 1209.56 1131.92L1209.56 1108.18C1209.56 1077.91 1234.09 1053.38 1264.35 1053.38L1290.65 1053.38C1320.91 1053.38 1345.44 1077.91 1345.44 1108.18 1345.44 1133.32 1344.83 1138.24 1347.86 1148.24 1352.14 1162.38 1357.78 1164.12 1362.14 1178.51 1368.98 1201.13 1361.41 1225.79 1342.76 1240.64L1337.9 1244.5C1352.04 1250.93 1361.88 1265.18 1361.88 1281.72Z" fill="#FFDFBA" fill-rule="nonzero" fill-opacity="1"/><path d="M1361.88 1281.72 1361.88 1303.23C1361.88 1305.65 1359.92 1307.62 1357.5 1307.62L1197.5 1307.62C1195.08 1307.62 1193.12 1305.65 1193.12 1303.23L1193.12 1281.72C1193.12 1259.17 1211.4 1240.86 1233.98 1240.86 1237.34 1240.86 1240.53 1240.14 1243.39 1238.83L1243.53 1239.13 1274.82 1263.35C1276.4 1264.57 1278.6 1264.57 1280.18 1263.35L1311.47 1239.13 1311.61 1238.83C1314.47 1240.14 1317.66 1240.86 1321.02 1240.86 1343.51 1240.86 1361.88 1259.08 1361.88 1281.72Z" fill="#FFAA64" fill-rule="nonzero" fill-opacity="1"/><path d="M1327.6 1133.52C1329.92 1133.65 1331.74 1135.57 1331.74 1137.9L1331.74 1164.13C1331.74 1186.75 1317.91 1206.13 1298.24 1214.27 1262.67 1229.03 1223.26 1202.8 1223.26 1164.13L1223.26 1138.28C1223.26 1135.71 1225.46 1133.68 1228.02 1133.91 1254.31 1136.29 1280.2 1129.65 1301.94 1115.01 1304.42 1113.34 1307.82 1114.58 1308.6 1117.45 1311.31 1127.42 1318.68 1133.01 1327.6 1133.52Z" fill="#FFEBD2" fill-rule="nonzero" fill-opacity="1"/><path d="M1342.76 1240.64 1337.9 1244.5C1332.76 1242.17 1327.04 1240.86 1321.02 1240.86 1308.51 1240.86 1298.32 1230.76 1298.32 1218.21L1298.32 1214.47 1298.24 1214.27C1317.91 1206.13 1331.74 1186.75 1331.74 1164.13L1331.74 1137.9C1331.74 1135.57 1329.92 1133.65 1327.6 1133.52 1318.74 1133.02 1311.32 1127.49 1308.6 1117.45 1307.82 1114.58 1304.42 1113.34 1301.94 1115.01 1280.22 1129.65 1254.33 1136.3 1228.02 1133.91 1225.46 1133.68 1223.26 1135.71 1223.26 1138.28L1223.26 1164.13C1223.26 1186.75 1237.09 1206.13 1256.76 1214.27L1256.68 1214.47 1256.68 1218.21C1256.68 1230.76 1246.49 1240.86 1233.98 1240.86 1227.96 1240.86 1222.24 1242.17 1217.1 1244.5L1212.24 1240.64C1188.68 1221.86 1183.43 1188.21 1200.1 1163.17 1206.27 1153.91 1209.56 1143.04 1209.56 1131.92L1209.56 1108.18C1209.56 1077.91 1234.09 1053.38 1264.35 1053.38L1290.65 1053.38C1320.91 1053.38 1345.44 1077.91 1345.44 1108.18L1345.44 1131.92C1345.44 1143.03 1348.73 1153.91 1354.9 1163.17 1371.63 1188.3 1366.24 1221.95 1342.76 1240.64Z" fill="#42434D" fill-rule="nonzero" fill-opacity="1"/><path d="M1298.94 1223.47C1285.44 1229.12 1270.61 1229.56 1256.06 1223.47 1256.8 1220.39 1256.68 1218.39 1256.68 1214.47L1256.76 1214.27C1269.96 1219.75 1285.02 1219.76 1298.24 1214.27L1298.32 1214.47C1298.32 1218.39 1298.2 1220.39 1298.94 1223.47Z" fill="#FFD6A6" fill-rule="nonzero" fill-opacity="1"/><path d="M1315.4 1059.28C1321 1062.12 1318.57 1070.66 1312.32 1070.07 1310.6 1069.9 1308.85 1069.82 1307.09 1069.82L1280.79 1069.82C1250.53 1069.82 1226 1094.35 1226 1124.61L1226 1131.28C1226 1135.22 1223.26 1135.09 1223.26 1138.28 1223.26 1167.22 1223.37 1165.39 1222.95 1166.64 1218.65 1179.28 1213.49 1181.11 1209.3 1194.95 1207.02 1202.49 1206.35 1210.25 1207.14 1217.78 1207.78 1223.93 1199.22 1226.87 1196.14 1220.47 1187.29 1202.13 1188.67 1180.33 1200.1 1163.17 1206.27 1153.91 1209.56 1143.04 1209.56 1131.92L1209.56 1108.18C1209.56 1077.91 1234.09 1053.38 1264.35 1053.38L1290.65 1053.38C1299.56 1053.38 1307.97 1055.51 1315.4 1059.28Z" fill="#4D4E59" fill-rule="nonzero" fill-opacity="1"/><path d="M1267.1 1200.47C1275.29 1205.95 1269.05 1218.62 1259.75 1215.36 1239.33 1208.19 1223.26 1189.13 1223.26 1164.13L1223.26 1138.28C1223.26 1135.71 1225.46 1133.68 1228.02 1133.91 1230.12 1134.1 1232.42 1134.25 1234.91 1134.33 1239.42 1134.46 1242.98 1138.18 1242.98 1142.69L1242.98 1155.37C1242.98 1174.45 1252.71 1190.84 1267.1 1200.47Z" fill="#FFF3E4" fill-rule="nonzero" fill-opacity="1"/><path d="M1252.57 1246.12C1255.17 1248.14 1253.79 1252.36 1250.5 1252.37 1227.31 1252.46 1209.56 1271.08 1209.56 1293.23L1209.56 1307.62 1197.51 1307.62C1195.08 1307.62 1193.12 1305.65 1193.12 1303.23L1193.12 1281.72C1193.12 1259.17 1211.41 1240.86 1233.98 1240.86 1237.34 1240.86 1240.53 1240.14 1243.39 1238.83L1243.53 1239.13Z" fill="#FFBD7B" fill-rule="nonzero" fill-opacity="1"/><path d="M1302.43 1246.12C1299.83 1248.14 1301.21 1252.36 1304.5 1252.37 1327.69 1252.46 1345.44 1271.08 1345.44 1293.23L1345.44 1307.62 1357.5 1307.62C1359.92 1307.62 1361.88 1305.65 1361.88 1303.23L1361.88 1281.72C1361.88 1259.17 1343.6 1240.86 1321.02 1240.86 1317.66 1240.86 1314.47 1240.14 1311.61 1238.83L1311.47 1239.13Z" fill="#FAA157" fill-rule="nonzero" fill-opacity="1"/><path d="M1366.26 1281.72 1366.26 1307.62C1366.26 1310.04 1364.3 1312 1361.88 1312 1359.46 1312 1357.5 1310.04 1357.5 1307.62L1357.5 1281.72C1357.5 1261.56 1341.18 1245.25 1321.02 1245.25 1311.48 1245.25 1302.82 1240.39 1297.87 1232.25 1296.61 1230.18 1297.26 1227.48 1299.33 1226.22 1301.4 1224.96 1304.09 1225.62 1305.35 1227.69 1308.71 1233.19 1314.56 1236.48 1321.02 1236.48 1346.03 1236.48 1366.26 1256.72 1366.26 1281.72ZM1293.13 1247.78 1277.5 1259.88 1250.92 1239.31C1256.66 1234.7 1260.37 1227.99 1260.97 1220.38 1266.22 1221.93 1271.76 1222.76 1277.5 1222.76 1309.83 1222.76 1336.13 1196.46 1336.13 1164.13 1336.13 1163.79 1336.14 1133.44 1336.11 1133.1 1335.96 1130.73 1333.99 1129 1331.74 1129 1330.99 1129 1325.59 1130.06 1320.31 1126.88 1312.06 1121.92 1312.02 1111.05 1312.02 1110.94 1312.04 1107.38 1308.01 1105.28 1305.1 1107.34 1287.05 1120.12 1265.91 1128.78 1242.95 1132 1240.56 1132.33 1238.88 1134.55 1239.22 1136.95 1239.53 1139.14 1241.4 1140.72 1243.56 1140.72 1244.25 1140.72 1258.46 1138.98 1274.61 1133.12 1285.02 1129.33 1295 1124.4 1304.35 1118.41 1307.58 1130.54 1316.64 1137.28 1327.36 1137.89L1327.36 1164.13C1327.36 1191.62 1305 1213.99 1277.5 1213.99 1250.01 1213.99 1227.64 1191.62 1227.64 1164.13L1227.64 1133.38C1227.64 1130.96 1225.68 1129 1223.26 1129 1220.84 1129 1218.87 1130.96 1218.87 1133.38L1218.87 1164.13C1218.87 1187.44 1232.55 1207.61 1252.3 1217.06L1252.3 1218.21C1252.3 1228.32 1244.11 1236.48 1233.98 1236.48 1228.44 1236.48 1222.97 1237.48 1217.8 1239.46L1214.97 1237.21C1192.77 1219.53 1188.61 1188.33 1203.75 1165.6 1210.21 1155.91 1213.94 1144.32 1213.94 1131.92L1213.94 1108.18C1213.94 1080.38 1236.56 1057.77 1264.35 1057.77L1290.65 1057.77C1318.45 1057.77 1341.06 1080.38 1341.06 1108.18L1341.06 1131.92C1341.06 1143.98 1344.57 1155.6 1351.2 1165.53 1363.34 1183.68 1363.31 1207.5 1350.77 1225.7 1349.4 1227.69 1349.9 1230.42 1351.9 1231.79 1353.89 1233.17 1356.62 1232.67 1357.99 1230.67 1372.59 1209.49 1372.61 1181.77 1358.49 1160.65 1352.82 1152.17 1349.83 1142.24 1349.83 1131.92L1349.83 1108.18C1349.83 1075.55 1323.28 1049 1290.65 1049L1264.35 1049C1231.72 1049 1205.18 1075.55 1205.18 1108.18L1205.18 1131.92C1205.18 1142.21 1202.16 1152.17 1196.46 1160.74 1178.78 1187.27 1183.79 1223.35 1209.24 1243.84 1196.74 1252.04 1188.74 1265.97 1188.74 1281.72L1188.74 1307.62C1188.74 1310.04 1190.7 1312 1193.12 1312 1195.54 1312 1197.51 1310.04 1197.51 1307.62L1197.51 1281.72C1197.51 1261.56 1213.82 1245.25 1233.98 1245.25 1236.89 1245.25 1239.76 1244.79 1242.51 1243.88L1274.82 1268.89C1276.4 1270.12 1278.6 1270.12 1280.18 1268.89L1298.5 1254.71C1300.41 1253.23 1300.76 1250.48 1299.28 1248.56 1297.8 1246.65 1295.05 1246.3 1293.13 1247.78Z" fill="#000000" fill-rule="nonzero" fill-opacity="1"/></g></g></g><text fill="#000000" fill-opacity="1" font-family="Arial,Arial_MSFontService,sans-serif" font-style="normal" font-variant="normal" font-weight="400" font-stretch="normal" font-size="83" text-anchor="start" direction="ltr" writing-mode="lr-tb" unicode-bidi="normal" text-decoration="none" transform="matrix(1 0 0 1 1388.47 851)">localhost: <tspan fill="#000000" fill-opacity="1" font-family="Arial,Arial_MSFontService,sans-serif" font-style="normal" font-variant="normal" font-weight="400" font-stretch="normal" font-size="83" text-anchor="start" direction="ltr" writing-mode="lr-tb" unicode-bidi="normal" text-decoration="none" x="371.25" y="0">8888</tspan><tspan fill="#000000" fill-opacity="1" font-family="Arial,Arial_MSFontService,sans-serif" font-style="normal" font-variant="normal" font-weight="400" font-stretch="normal" font-size="83" text-anchor="start" direction="ltr" writing-mode="lr-tb" unicode-bidi="normal" text-decoration="none" x="1243.51" y="308">jupyter</tspan>: <tspan fill="#000000" fill-opacity="1" font-family="Arial,Arial_MSFontService,sans-serif" font-style="normal" font-variant="normal" font-weight="400" font-stretch="normal" font-size="83" text-anchor="start" direction="ltr" writing-mode="lr-tb" unicode-bidi="normal" text-decoration="none" x="1243.51" y="407">8888</tspan><tspan fill="#000000" fill-opacity="1" font-family="Arial,Arial_MSFontService,sans-serif" font-style="normal" font-variant="normal" font-weight="400" font-stretch="normal" font-size="83" text-anchor="start" direction="ltr" writing-mode="lr-tb" unicode-bidi="normal" text-decoration="none" x="1217.81" y="795">atlas</tspan><tspan fill="#000000" fill-opacity="1" font-family="Arial,Arial_MSFontService,sans-serif" font-style="normal" font-variant="normal" font-weight="400" font-stretch="normal" font-size="83" text-anchor="start" direction="ltr" writing-mode="lr-tb" unicode-bidi="normal" text-decoration="none" x="1391.98" y="795">: </tspan><tspan fill="#000000" fill-opacity="1" font-family="Arial,Arial_MSFontService,sans-serif" font-style="normal" font-variant="normal" font-weight="400" font-stretch="normal" font-size="83" text-anchor="start" direction="ltr" writing-mode="lr-tb" unicode-bidi="normal" text-decoration="none" x="1437.81" y="795">21000</tspan></text><path d="M1.40243-3.13841 506.373 222.513 503.568 228.79-1.40243 3.13841ZM506.396 211.228 525.894 235.001 495.177 236.335Z" fill="#4472C4" fill-rule="nonzero" fill-opacity="1" transform="matrix(1 0 0 -1 1409.5 1181.5)"/><path d="M1411.04 1178.43 1912.43 1430.26 1909.34 1436.4 1407.96 1184.57ZM1912.96 1418.99 1931.36 1443.62 1900.62 1443.56Z" fill="#4472C4" fill-rule="nonzero" fill-opacity="1"/><path d="M2041.5 943.062 2314.49 943.063 2314.49 949.938 2041.5 949.937ZM2309.9 932.75 2337.4 946.5 2309.9 960.25Z" fill="#4472C4" fill-rule="nonzero" fill-opacity="1"/><path d="M2037.5 1440.06 2314.52 1440.06 2314.52 1446.94 2037.5 1446.94ZM2309.93 1429.75 2337.43 1443.5 2309.93 1457.25Z" fill="#4472C4" fill-rule="nonzero" fill-opacity="1"/><path d="M2559.94 1049.5 2559.94 1316.67 2553.06 1316.67 2553.06 1049.5ZM2570.25 1312.08 2556.5 1339.58 2542.75 1312.08Z" fill="#4472C4" fill-rule="nonzero" fill-opacity="1"/><g clip-path="url(#clip4)"><g clip-path="url(#clip5)"><g clip-path="url(#clip6)"><path d="M625.91 151.508 625.854 117.314 625.684 56.2277M660.275 82.553 625.854 117.314 660.445 151.622M429.857 117.767C430.024 110.434 427.892 102.941 423.573 96.8763 417.35 88.1378 407.278 82.1719 396.229 82.0435 395.492 82.0435 394.763 82.0435 394.021 82.1 389.653 82.3699 385.423 82.9769 381.679 84.5344 357.061 94.7776 352.699 128.964 373.47 144.432 391.458 157.826 417.624 152.357 426.687 131.92 428.602 127.601 429.857 122.157 429.857 117.767L429.857 55.9446M595.964 86.1197C590.866 82.826 584.92 81.6377 579.036 81.6472 578.398 81.6472 577.742 81.6791 577.168 81.7037 560.159 82.4353 544.389 94.4547 544.389 117.767 544.389 145.328 573.941 160.204 596.02 147.206M695.207 144.205C712.603 129.304 747.462 99.4239 747.462 99.4239 747.462 99.4239 746.191 97.0194 745.367 95.9138 738.333 86.4741 727.587 81.7604 716.268 81.7604 688.293 81.7604 667.324 117.933 695.207 144.205 697.138 146.024 699.79 147.449 702.737 148.678 712.969 152.943 726.976 152.594 734.554 146.979M487.033 81.8737C486.24 81.8882 485.452 81.9722 484.656 81.9869 463.443 82.3767 448.149 104.41 452.782 124.843 457.297 144.756 479.051 156.547 497.847 150.036 519.733 144.298 528.66 116.737 516.642 98.1218 510.07 87.9406 498.929 81.6476 487.033 81.8737ZM809.108 82.553C800.519 82.576 792.153 85.5845 785.953 91.3848 776.176 99.4542 774.053 109.644 774.178 122.522L774.461 151.792" stroke="#394D54" stroke-width="14.0483" stroke-linecap="round" stroke-linejoin="round" stroke-miterlimit="4" stroke-opacity="1" fill="none" fill-rule="nonzero" transform="matrix(1.00718 0 0 1 2109 1797)"/><path d="M197.328 61.1862 227.921 61.1862 227.921 92.46 243.39 92.46C250.533 92.46 257.881 91.1874 264.646 88.8951 267.97 87.768 271.701 86.1995 274.98 84.2268 270.661 78.5883 268.456 71.4687 267.807 64.4508 266.926 54.9057 268.851 42.4814 275.312 35.0107L278.527 31.2911 282.36 34.3715C292.008 42.1232 300.122 52.9545 301.552 65.3021 313.17 61.8848 326.809 62.6931 337.049 68.6032L341.25 71.0273 339.039 75.3431C330.379 92.2456 312.274 97.4814 294.573 96.555 268.086 162.526 210.42 193.759 140.501 193.759 104.378 193.759 71.2364 180.256 52.3639 148.207 51.2574 146.216 50.3099 144.134 49.305 142.089 42.9255 127.982 40.8067 112.528 42.2441 97.0859L42.6755 92.4606 68.8359 92.4606 68.8359 61.1868 99.429 61.1868 99.429 30.5937 160.615 30.5937 160.615 0.000622137 197.328 0.000622137 197.328 61.1868" fill="#394D54" fill-rule="nonzero" fill-opacity="1" transform="matrix(1.00718 0 0 1 2109 1797)"/><g clip-path="url(#clip7)"><path d="M165.715 5.09896 192.229 5.09896 192.229 31.6127 165.715 31.6127Z" fill="#00ACD3" fill-rule="nonzero" fill-opacity="1" transform="matrix(1.00718 0 0 1 2109 1766.41)"/><path d="M165.715 35.6913 192.229 35.6913 192.229 62.2064 165.715 62.2064Z" fill="#20C2EF" fill-rule="nonzero" fill-opacity="1" transform="matrix(1.00718 0 0 1 2109 1766.41)"/><path d="M168.97 29.4036 168.97 7.30664M172.946 29.4036 172.946 7.30664M176.963 29.4036 176.963 7.30664M180.981 29.4036 180.981 7.30664M184.999 29.4036 184.999 7.30664M188.974 29.4036 188.974 7.30664" stroke="#394D54" stroke-width="2.08717" stroke-linecap="butt" stroke-linejoin="miter" stroke-miterlimit="4" stroke-opacity="1" fill="#000000" fill-rule="nonzero" fill-opacity="1" transform="matrix(1.00718 0 0 1 2109 1766.41)"/><path d="M168.97 29.4036 168.97 7.30664M172.946 29.4036 172.946 7.30664M176.963 29.4036 176.963 7.30664M180.981 29.4036 180.981 7.30664M184.999 29.4036 184.999 7.30664M188.974 29.4036 188.974 7.30664" stroke="#394D54" stroke-width="2.08717" stroke-linecap="butt" stroke-linejoin="miter" stroke-miterlimit="4" stroke-opacity="1" fill="#000000" fill-rule="nonzero" fill-opacity="1" transform="matrix(1.00718 0 0 1 2109 1797)"/><path d="M165.715 5.09896 192.229 5.09896 192.229 31.6127 165.715 31.6127Z" fill="#00ACD3" fill-rule="nonzero" fill-opacity="1" transform="matrix(1.00718 0 0 -1 2139.81 1833.71)"/><path d="M165.715 35.6913 192.229 35.6913 192.229 62.2064 165.715 62.2064Z" fill="#20C2EF" fill-rule="nonzero" fill-opacity="1" transform="matrix(1.00718 0 0 -1 2139.81 1833.71)"/><path d="M168.97 29.4036 168.97 7.30664M172.946 29.4036 172.946 7.30664M176.963 29.4036 176.963 7.30664M180.981 29.4036 180.981 7.30664M184.999 29.4036 184.999 7.30664M188.974 29.4036 188.974 7.30664" stroke="#394D54" stroke-width="2.08717" stroke-linecap="butt" stroke-linejoin="miter" stroke-miterlimit="4" stroke-opacity="1" fill="#000000" fill-rule="nonzero" fill-opacity="1" transform="matrix(1.00718 0 0 -1 2139.81 1833.71)"/><path d="M168.97 29.4036 168.97 7.30664M172.946 29.4036 172.946 7.30664M176.963 29.4036 176.963 7.30664M180.981 29.4036 180.981 7.30664M184.999 29.4036 184.999 7.30664M188.974 29.4036 188.974 7.30664" stroke="#394D54" stroke-width="2.08717" stroke-linecap="butt" stroke-linejoin="miter" stroke-miterlimit="4" stroke-opacity="1" fill="#000000" fill-rule="nonzero" fill-opacity="1" transform="matrix(1.00718 0 0 -1 2139.81 1803.12)"/><path d="M165.715 5.09896 192.229 5.09896 192.229 31.6127 165.715 31.6127Z" fill="#00ACD3" fill-rule="nonzero" fill-opacity="1" transform="matrix(1.00718 0 0 1 1985.75 1827.59)"/><path d="M165.715 35.6913 192.229 35.6913 192.229 62.2064 165.715 62.2064Z" fill="#20C2EF" fill-rule="nonzero" fill-opacity="1" transform="matrix(1.00718 0 0 1 1985.75 1827.59)"/><path d="M168.97 29.4036 168.97 7.30664M172.946 29.4036 172.946 7.30664M176.963 29.4036 176.963 7.30664M180.981 29.4036 180.981 7.30664M184.999 29.4036 184.999 7.30664M188.974 29.4036 188.974 7.30664" stroke="#394D54" stroke-width="2.08717" stroke-linecap="butt" stroke-linejoin="miter" stroke-miterlimit="4" stroke-opacity="1" fill="#000000" fill-rule="nonzero" fill-opacity="1" transform="matrix(1.00718 0 0 1 1985.75 1827.59)"/><path d="M168.97 29.4036 168.97 7.30664M172.946 29.4036 172.946 7.30664M176.963 29.4036 176.963 7.30664M180.981 29.4036 180.981 7.30664M184.999 29.4036 184.999 7.30664M188.974 29.4036 188.974 7.30664" stroke="#394D54" stroke-width="2.08717" stroke-linecap="butt" stroke-linejoin="miter" stroke-miterlimit="4" stroke-opacity="1" fill="#000000" fill-rule="nonzero" fill-opacity="1" transform="matrix(1.00718 0 0 1 1985.75 1858.19)"/><path d="M165.715 5.09896 192.229 5.09896 192.229 31.6127 165.715 31.6127Z" fill="#00ACD3" fill-rule="nonzero" fill-opacity="1" transform="matrix(1.00718 0 0 -1 2016.56 1894.9)"/><path d="M165.715 35.6913 192.229 35.6913 192.229 62.2064 165.715 62.2064Z" fill="#20C2EF" fill-rule="nonzero" fill-opacity="1" transform="matrix(1.00718 0 0 -1 2016.56 1894.9)"/><path d="M168.97 29.4036 168.97 7.30664M172.946 29.4036 172.946 7.30664M176.963 29.4036 176.963 7.30664M180.981 29.4036 180.981 7.30664M184.999 29.4036 184.999 7.30664M188.974 29.4036 188.974 7.30664" stroke="#394D54" stroke-width="2.08717" stroke-linecap="butt" stroke-linejoin="miter" stroke-miterlimit="4" stroke-opacity="1" fill="#000000" fill-rule="nonzero" fill-opacity="1" transform="matrix(1.00718 0 0 -1 2016.56 1894.9)"/><path d="M168.97 29.4036 168.97 7.30664M172.946 29.4036 172.946 7.30664M176.963 29.4036 176.963 7.30664M180.981 29.4036 180.981 7.30664M184.999 29.4036 184.999 7.30664M188.974 29.4036 188.974 7.30664" stroke="#394D54" stroke-width="2.08717" stroke-linecap="butt" stroke-linejoin="miter" stroke-miterlimit="4" stroke-opacity="1" fill="#000000" fill-rule="nonzero" fill-opacity="1" transform="matrix(1.00718 0 0 -1 2016.56 1864.3)"/><path d="M165.715 5.09896 192.229 5.09896 192.229 31.6127 165.715 31.6127Z" fill="#00ACD3" fill-rule="nonzero" fill-opacity="1" transform="matrix(1.00718 0 0 1 2047.37 1827.59)"/><path d="M165.715 35.6913 192.229 35.6913 192.229 62.2064 165.715 62.2064Z" fill="#20C2EF" fill-rule="nonzero" fill-opacity="1" transform="matrix(1.00718 0 0 1 2047.37 1827.59)"/><path d="M168.97 29.4036 168.97 7.30664M172.946 29.4036 172.946 7.30664M176.963 29.4036 176.963 7.30664M180.981 29.4036 180.981 7.30664M184.999 29.4036 184.999 7.30664M188.974 29.4036 188.974 7.30664" stroke="#394D54" stroke-width="2.08717" stroke-linecap="butt" stroke-linejoin="miter" stroke-miterlimit="4" stroke-opacity="1" fill="#000000" fill-rule="nonzero" fill-opacity="1" transform="matrix(1.00718 0 0 1 2047.37 1827.59)"/><path d="M168.97 29.4036 168.97 7.30664M172.946 29.4036 172.946 7.30664M176.963 29.4036 176.963 7.30664M180.981 29.4036 180.981 7.30664M184.999 29.4036 184.999 7.30664M188.974 29.4036 188.974 7.30664" stroke="#394D54" stroke-width="2.08717" stroke-linecap="butt" stroke-linejoin="miter" stroke-miterlimit="4" stroke-opacity="1" fill="#000000" fill-rule="nonzero" fill-opacity="1" transform="matrix(1.00718 0 0 1 2047.37 1858.19)"/><path d="M165.715 5.09896 192.229 5.09896 192.229 31.6127 165.715 31.6127Z" fill="#00ACD3" fill-rule="nonzero" fill-opacity="1" transform="matrix(1.00718 0 0 -1 2078.19 1894.9)"/><path d="M165.715 35.6913 192.229 35.6913 192.229 62.2064 165.715 62.2064Z" fill="#20C2EF" fill-rule="nonzero" fill-opacity="1" transform="matrix(1.00718 0 0 -1 2078.19 1894.9)"/><path d="M168.97 29.4036 168.97 7.30664M172.946 29.4036 172.946 7.30664M176.963 29.4036 176.963 7.30664M180.981 29.4036 180.981 7.30664M184.999 29.4036 184.999 7.30664M188.974 29.4036 188.974 7.30664" stroke="#394D54" stroke-width="2.08717" stroke-linecap="butt" stroke-linejoin="miter" stroke-miterlimit="4" stroke-opacity="1" fill="#000000" fill-rule="nonzero" fill-opacity="1" transform="matrix(1.00718 0 0 -1 2078.19 1894.9)"/><path d="M168.97 29.4036 168.97 7.30664M172.946 29.4036 172.946 7.30664M176.963 29.4036 176.963 7.30664M180.981 29.4036 180.981 7.30664M184.999 29.4036 184.999 7.30664M188.974 29.4036 188.974 7.30664" stroke="#394D54" stroke-width="2.08717" stroke-linecap="butt" stroke-linejoin="miter" stroke-miterlimit="4" stroke-opacity="1" fill="#000000" fill-rule="nonzero" fill-opacity="1" transform="matrix(1.00718 0 0 -1 2078.19 1864.3)"/><path d="M165.715 5.09896 192.229 5.09896 192.229 31.6127 165.715 31.6127Z" fill="#00ACD3" fill-rule="nonzero" fill-opacity="1" transform="matrix(1.00718 0 0 1 2109 1827.59)"/><path d="M165.715 35.6913 192.229 35.6913 192.229 62.2064 165.715 62.2064Z" fill="#20C2EF" fill-rule="nonzero" fill-opacity="1" transform="matrix(1.00718 0 0 1 2109 1827.59)"/><path d="M168.97 29.4036 168.97 7.30664M172.946 29.4036 172.946 7.30664M176.963 29.4036 176.963 7.30664M180.981 29.4036 180.981 7.30664M184.999 29.4036 184.999 7.30664M188.974 29.4036 188.974 7.30664" stroke="#394D54" stroke-width="2.08717" stroke-linecap="butt" stroke-linejoin="miter" stroke-miterlimit="4" stroke-opacity="1" fill="#000000" fill-rule="nonzero" fill-opacity="1" transform="matrix(1.00718 0 0 1 2109 1827.59)"/><path d="M168.97 29.4036 168.97 7.30664M172.946 29.4036 172.946 7.30664M176.963 29.4036 176.963 7.30664M180.981 29.4036 180.981 7.30664M184.999 29.4036 184.999 7.30664M188.974 29.4036 188.974 7.30664" stroke="#394D54" stroke-width="2.08717" stroke-linecap="butt" stroke-linejoin="miter" stroke-miterlimit="4" stroke-opacity="1" fill="#000000" fill-rule="nonzero" fill-opacity="1" transform="matrix(1.00718 0 0 1 2109 1858.19)"/><path d="M165.715 5.09896 192.229 5.09896 192.229 31.6127 165.715 31.6127Z" fill="#00ACD3" fill-rule="nonzero" fill-opacity="1" transform="matrix(1.00718 0 0 -1 2139.81 1894.9)"/><path d="M165.715 35.6913 192.229 35.6913 192.229 62.2064 165.715 62.2064Z" fill="#20C2EF" fill-rule="nonzero" fill-opacity="1" transform="matrix(1.00718 0 0 -1 2139.81 1894.9)"/><path d="M168.97 29.4036 168.97 7.30664M172.946 29.4036 172.946 7.30664M176.963 29.4036 176.963 7.30664M180.981 29.4036 180.981 7.30664M184.999 29.4036 184.999 7.30664M188.974 29.4036 188.974 7.30664" stroke="#394D54" stroke-width="2.08717" stroke-linecap="butt" stroke-linejoin="miter" stroke-miterlimit="4" stroke-opacity="1" fill="#000000" fill-rule="nonzero" fill-opacity="1" transform="matrix(1.00718 0 0 -1 2139.81 1894.9)"/><path d="M168.97 29.4036 168.97 7.30664M172.946 29.4036 172.946 7.30664M176.963 29.4036 176.963 7.30664M180.981 29.4036 180.981 7.30664M184.999 29.4036 184.999 7.30664M188.974 29.4036 188.974 7.30664" stroke="#394D54" stroke-width="2.08717" stroke-linecap="butt" stroke-linejoin="miter" stroke-miterlimit="4" stroke-opacity="1" fill="#000000" fill-rule="nonzero" fill-opacity="1" transform="matrix(1.00718 0 0 -1 2139.81 1864.3)"/></g><g clip-path="url(#clip8)"><path d="M296.445 72.7562C298.497 56.8144 286.566 44.292 279.167 38.3468 270.641 48.2044 269.316 74.0395 282.693 84.9167 275.228 91.5476 259.497 97.5581 243.39 97.5581L45.4896 97.5581C43.9232 114.372 45.4896 195.338 45.4896 195.338L335.82 195.338 334.5 73.0189C321.926 65.7624 305.756 68.0761 296.445 72.7559" fill="#17B5EB" fill-rule="nonzero" fill-opacity="1" transform="matrix(1.00718 0 0 1 2109 1797)"/></g><g clip-path="url(#clip9)"><path d="M45.4896 119.076 45.4896 195.338 335.82 195.338 335.82 119.076" fill="#000000" fill-rule="nonzero" fill-opacity="0.17" transform="matrix(1.00718 0 0 1 2109 1797)"/></g><g clip-path="url(#clip10)"><path d="M148.828 188.501C130.713 179.904 120.769 168.219 115.237 155.462L60.2069 157.876 88.3034 195.338 148.828 188.501" fill="#D4EDF1" fill-rule="nonzero" fill-opacity="1" transform="matrix(1.00718 0 0 1 2109 1797)"/></g><g clip-path="url(#clip11)"><path d="M297.689 72.1646 297.689 72.2064C269.779 108.182 229.745 139.61 186.767 156.12 148.429 170.847 115.002 170.918 91.9409 159.088 89.4576 157.686 87.0231 156.129 84.5823 154.656 67.6753 142.84 58.1522 123.293 58.9525 97.5435L45.4896 97.5435 45.4896 195.338 335.82 195.338 335.82 66.8965 302.372 66.8965Z" fill="#000000" fill-rule="nonzero" fill-opacity="0.085" transform="matrix(1.00718 0 0 1 2109 1797)"/></g><path d="M61.0431 156.58C79.995 157.617 100.221 157.803 117.863 152.273" stroke="#394D54" stroke-width="4.54896" stroke-linecap="round" stroke-linejoin="miter" stroke-miterlimit="4" stroke-opacity="1" fill="none" fill-rule="nonzero" transform="matrix(1.00718 0 0 1 2109 1797)"/><path d="M136.697 143.104C136.697 147.143 133.422 150.418 129.383 150.418 125.343 150.418 122.068 147.143 122.068 143.104 122.068 139.065 125.343 135.789 129.383 135.789 133.422 135.789 136.697 139.065 136.697 143.104Z" fill="#D4EDF1" fill-rule="nonzero" fill-opacity="1" transform="matrix(1.00718 0 0 1 2109 1797)"/><path d="M131.28 138.219C130.641 138.588 130.209 139.279 130.209 140.07 130.209 141.251 131.166 142.207 132.347 142.207 133.156 142.207 133.859 141.758 134.222 141.094 134.479 141.712 134.622 142.392 134.622 143.104 134.622 145.997 132.276 148.342 129.383 148.342 126.49 148.342 124.143 145.997 124.143 143.104 124.143 140.21 126.49 137.864 129.383 137.864 130.052 137.864 130.691 137.99 131.28 138.219Z" fill="#394D54" fill-rule="nonzero" fill-opacity="1" transform="matrix(1.00718 0 0 1 2109 1797)"/><path d="M0 120.631 340.272 120.631C332.863 118.751 316.83 116.213 319.474 106.503 306.003 122.092 273.513 117.439 265.313 109.752 256.182 122.996 203.027 117.962 199.319 107.645 187.873 121.079 152.402 121.079 140.954 107.645 137.246 117.962 84.0905 122.996 74.9588 109.752 66.7594 117.439 34.2725 122.092 20.7992 106.503 23.4433 116.213 7.41054 118.751 0 120.631" fill="#394D54" fill-rule="nonzero" fill-opacity="1" transform="matrix(1.00718 0 0 1 2109 1797)"/></g></g></g></g></svg>