<svg id="graph-div" width="100%" xmlns="http://www.w3.org/2000/svg" xmlns:xlink="http://www.w3.org/1999/xlink" height="684.5" style="max-width: 194.02734375px;" viewBox="-20 -20 194.02734375 684.5"><style>#graph-div {font-family:"trebuchet ms",verdana,arial,sans-serif;font-size:16px;fill:#333;}#graph-div .error-icon{fill:#552222;}#graph-div .error-text{fill:#552222;stroke:#552222;}#graph-div .edge-thickness-normal{stroke-width:2px;}#graph-div .edge-thickness-thick{stroke-width:3.5px;}#graph-div .edge-pattern-solid{stroke-dasharray:0;}#graph-div .edge-pattern-dashed{stroke-dasharray:3;}#graph-div .edge-pattern-dotted{stroke-dasharray:2;}#graph-div .marker{fill:#333333;stroke:#333333;}#graph-div .marker.cross{stroke:#333333;}#graph-div svg{font-family:"trebuchet ms",verdana,arial,sans-serif;font-size:16px;}#graph-div g.classGroup text{fill:#9370DB;fill:#131300;stroke:none;font-family:"trebuchet ms",verdana,arial,sans-serif;font-size:10px;}#graph-div g.classGroup text .title{font-weight:bolder;}#graph-div .classTitle{font-weight:bolder;}#graph-div .node rect,#graph-div .node circle,#graph-div .node ellipse,#graph-div .node polygon,#graph-div .node path{fill:#ECECFF;stroke:#9370DB;stroke-width:1px;}#graph-div .divider{stroke:#9370DB;stroke:1;}#graph-div g.clickable{cursor:pointer;}#graph-div g.classGroup rect{fill:#ECECFF;stroke:#9370DB;}#graph-div g.classGroup line{stroke:#9370DB;stroke-width:1;}#graph-div .classLabel .box{stroke:none;stroke-width:0;fill:#ECECFF;opacity:0.5;}#graph-div .classLabel .label{fill:#9370DB;font-size:10px;}#graph-div .relation{stroke:#333333;stroke-width:1;fill:none;}#graph-div .dashed-line{stroke-dasharray:3;}#graph-div #compositionStart,#graph-div .composition{fill:#333333!important;stroke:#333333!important;stroke-width:1;}#graph-div #compositionEnd,#graph-div .composition{fill:#333333!important;stroke:#333333!important;stroke-width:1;}#graph-div #dependencyStart,#graph-div .dependency{fill:#333333!important;stroke:#333333!important;stroke-width:1;}#graph-div #dependencyStart,#graph-div .dependency{fill:#333333!important;stroke:#333333!important;stroke-width:1;}#graph-div #extensionStart,#graph-div .extension{fill:#333333!important;stroke:#333333!important;stroke-width:1;}#graph-div #extensionEnd,#graph-div .extension{fill:#333333!important;stroke:#333333!important;stroke-width:1;}#graph-div #aggregationStart,#graph-div .aggregation{fill:#ECECFF!important;stroke:#333333!important;stroke-width:1;}#graph-div #aggregationEnd,#graph-div .aggregation{fill:#ECECFF!important;stroke:#333333!important;stroke-width:1;}#graph-div .edgeTerminals{font-size:11px;}#graph-div :root{--mermaid-font-family:"trebuchet ms",verdana,arial,sans-serif;}</style><g></g><defs><marker id="extensionStart" class="extension" refX="0" refY="7" markerWidth="190" markerHeight="240" orient="auto"><path d="M 1,7 L18,13 V 1 Z"></path></marker></defs><defs><marker id="extensionEnd" refX="19" refY="7" markerWidth="20" markerHeight="28" orient="auto"><path d="M 1,1 V 13 L18,7 Z"></path></marker></defs><defs><marker id="compositionStart" class="extension" refX="0" refY="7" markerWidth="190" markerHeight="240" orient="auto"><path d="M 18,7 L9,13 L1,7 L9,1 Z"></path></marker></defs><defs><marker id="compositionEnd" refX="19" refY="7" markerWidth="20" markerHeight="28" orient="auto"><path d="M 18,7 L9,13 L1,7 L9,1 Z"></path></marker></defs><defs><marker id="aggregationStart" class="extension" refX="0" refY="7" markerWidth="190" markerHeight="240" orient="auto"><path d="M 18,7 L9,13 L1,7 L9,1 Z"></path></marker></defs><defs><marker id="aggregationEnd" refX="19" refY="7" markerWidth="20" markerHeight="28" orient="auto"><path d="M 18,7 L9,13 L1,7 L9,1 Z"></path></marker></defs><defs><marker id="dependencyStart" class="extension" refX="0" refY="7" markerWidth="190" markerHeight="240" orient="auto"><path d="M 5,7 L9,13 L1,7 L9,1 Z"></path></marker></defs><defs><marker id="dependencyEnd" refX="19" refY="7" markerWidth="20" markerHeight="28" orient="auto"><path d="M 18,7 L9,13 L14,7 L9,1 Z"></path></marker></defs><g id="classid-AtlasEntity-18" class="classGroup" transform="translate(11.984375,0 )"><rect x="0" y="0" width="108.109375" height="46.625" class=" "></rect><text y="15" x="0"><tspan x="5">«abstract»</tspan><tspan class="title" dy="10" x="5">AtlasEntity</tspan></text><line x1="0" y1="31.625" y2="31.625" x2="108.109375"></line><text x="5" y="41.625" fill="white" class="classText"></text><line x1="0" y1="36.625" y2="36.625" x2="108.109375"></line><text x="5" y="51.625" fill="white" class="classText"></text></g><g id="classid-Referenceable-19" class="classGroup" transform="translate(11.5078125,96.625 )"><rect x="0" y="0" width="109.0625" height="48.25" class=" "></rect><text y="15" x="0"><tspan class="title" x="20.5625">Referenceable</tspan></text><line x1="0" y1="21.625" y2="21.625" x2="109.0625"></line><text x="5" y="31.625" fill="white" class="classText"><tspan x="5">String qualifiedName</tspan></text><line x1="0" y1="38.25" y2="38.25" x2="109.0625"></line><text x="5" y="53.25" fill="white" class="classText"></text></g><g id="classid-DataSet-20" class="classGroup" transform="translate(84.09765625,293.125 )"><rect x="0" y="0" width="45.875" height="36.625" class=" "></rect><text y="15" x="0"><tspan class="title" x="5">DataSet</tspan></text><line x1="0" y1="21.625" y2="21.625" x2="45.875"></line><text x="5" y="31.625" fill="white" class="classText"></text><line x1="0" y1="26.625" y2="26.625" x2="45.875"></line><text x="5" y="41.625" fill="white" class="classText"></text></g><g id="classid-fs_path-21" class="classGroup" transform="translate(74.90234375,379.75 )"><rect x="0" y="0" width="64.265625" height="48.25" class=" "></rect><text y="15" x="0"><tspan class="title" x="14.671875">fs_path</tspan></text><line x1="0" y1="21.625" y2="21.625" x2="64.265625"></line><text x="5" y="31.625" fill="white" class="classText"><tspan x="5">String path</tspan></text><line x1="0" y1="38.25" y2="38.25" x2="64.265625"></line><text x="5" y="53.25" fill="white" class="classText"></text></g><g id="classid-WARC_FILE-22" class="classGroup" transform="translate(60.04296875,478 )"><rect x="0" y="0" width="93.984375" height="48.25" class=" "></rect><text y="15" x="0"><tspan class="title" x="20.4453125">WARC_FILE</tspan></text><line x1="0" y1="21.625" y2="21.625" x2="93.984375"></line><text x="5" y="31.625" fill="white" class="classText"><tspan x="5">String crawl_date</tspan></text><line x1="0" y1="38.25" y2="38.25" x2="93.984375"></line><text x="5" y="53.25" fill="white" class="classText"></text></g><g id="classid-WARC_RECORD-23" class="classGroup" transform="translate(0,576.25 )"><rect x="0" y="0" width="132.078125" height="68.25" class=" "></rect><text y="15" x="0"><tspan class="title" x="30.6640625">WARC_RECORD</tspan></text><line x1="0" y1="21.625" y2="21.625" x2="132.078125"></line><text x="5" y="31.625" fill="white" class="classText"><tspan x="5">String content_type_norm</tspan><tspan x="5" dy="10">String content_language</tspan><tspan x="5" dy="10">String source_file_offset</tspan></text><line x1="0" y1="58.25" y2="58.25" x2="132.078125"></line><text x="5" y="73.25" fill="white" class="classText"></text></g><g id="classid-Asset-24" class="classGroup" transform="translate(72.79296875,194.875 )"><rect x="0" y="0" width="68.484375" height="48.25" class=" "></rect><text y="15" x="0"><tspan class="title" x="21.90625">Asset</tspan></text><line x1="0" y1="21.625" y2="21.625" x2="68.484375"></line><text x="5" y="31.625" fill="white" class="classText"><tspan x="5">String name</tspan></text><line x1="0" y1="38.25" y2="38.25" x2="68.484375"></line><text x="5" y="53.25" fill="white" class="classText"></text></g><path d="M66.0390625,46.625L66.0390625,50.791666666666664C66.0390625,54.958333333333336,66.0390625,63.291666666666664,66.0390625,71.625C66.0390625,79.95833333333333,66.0390625,88.29166666666667,66.0390625,92.45833333333333L66.0390625,96.625" id="edge19" class="relation" marker-start="url(#extensionStart)"></path><path d="M107.03515625,329.75L107.03515625,333.9166666666667C107.03515625,338.0833333333333,107.03515625,346.4166666666667,107.03515625,354.75C107.03515625,363.0833333333333,107.03515625,371.4166666666667,107.03515625,375.5833333333333L107.03515625,379.75" id="edge20" class="relation" marker-start="url(#extensionStart)"></path><path d="M107.03515625,428L107.03515625,432.1666666666667C107.03515625,436.3333333333333,107.03515625,444.6666666666667,107.03515625,453C107.03515625,461.3333333333333,107.03515625,469.6666666666667,107.03515625,473.8333333333333L107.03515625,478" id="edge21" class="relation" marker-start="url(#extensionStart)"></path><path d="M45.906120785623415,144.875L42.42892877968618,149.04166666666666C38.95173677374894,153.20833333333334,31.99735276187447,161.54166666666666,28.520160755937237,173.89583333333334C25.04296875,186.25,25.04296875,202.625,25.04296875,219C25.04296875,235.375,25.04296875,251.75,25.04296875,267.15625C25.04296875,282.5625,25.04296875,297,25.04296875,311.4375C25.04296875,325.875,25.04296875,340.3125,25.04296875,355.71875C25.04296875,371.125,25.04296875,387.5,25.04296875,403.875C25.04296875,420.25,25.04296875,436.625,25.04296875,453C25.04296875,469.375,25.04296875,485.75,25.04296875,502.125C25.04296875,518.5,25.04296875,534.875,27.93205217142354,547.2291666666666C30.821135592847074,559.5833333333334,36.59930243569415,567.9166666666666,39.48838585711769,572.0833333333334L42.37746927854123,576.25" id="edge22" class="relation" marker-start="url(#extensionStart)"></path><path d="M86.17200421437659,144.875L89.64919622031381,149.04166666666666C93.12638822625105,153.20833333333334,100.08077223812552,161.54166666666666,103.55796424406276,169.875C107.03515625,178.20833333333334,107.03515625,186.54166666666666,107.03515625,190.70833333333334L107.03515625,194.875" id="edge23" class="relation" marker-start="url(#extensionStart)"></path><path d="M107.03515625,243.125L107.03515625,247.29166666666666C107.03515625,251.45833333333334,107.03515625,259.7916666666667,107.03515625,268.125C107.03515625,276.4583333333333,107.03515625,284.7916666666667,107.03515625,288.9583333333333L107.03515625,293.125" id="edge24" class="relation" marker-start="url(#extensionStart)"></path><path d="M107.03515625,526.25L107.03515625,530.4166666666666C107.03515625,534.5833333333334,107.03515625,542.9166666666666,104.14607282857646,551.25C101.25698940715291,559.5833333333334,95.47882256430584,567.9166666666666,92.58973914288231,572.0833333333334L89.70065572145877,576.25" id="edge25" class="relation" marker-start="url(#compositionStart)"></path><g class="classLabel"><rect class="box" x="86.40625" y="541.578125" width="38.171875" height="16.625"></rect><text class="label" x="105.49047514504" y="553.4777554268389" fill="red" text-anchor="middle">records</text></g><g class="cardinality"><text class="type2" x="100.93212271003382" y="568.8267830905631" fill="black" font-size="6">1..*</text></g></svg>