<svg id="graph-div" width="100%" xmlns="http://www.w3.org/2000/svg" xmlns:xlink="http://www.w3.org/1999/xlink" height="791.125" style="max-width: 323.66015625px;" viewBox="-20 -20 323.66015625 791.125"><style>#graph-div {font-family:"trebuchet ms",verdana,arial,sans-serif;font-size:16px;fill:#333;}#graph-div .error-icon{fill:#552222;}#graph-div .error-text{fill:#552222;stroke:#552222;}#graph-div .edge-thickness-normal{stroke-width:2px;}#graph-div .edge-thickness-thick{stroke-width:3.5px;}#graph-div .edge-pattern-solid{stroke-dasharray:0;}#graph-div .edge-pattern-dashed{stroke-dasharray:3;}#graph-div .edge-pattern-dotted{stroke-dasharray:2;}#graph-div .marker{fill:#333333;stroke:#333333;}#graph-div .marker.cross{stroke:#333333;}#graph-div svg{font-family:"trebuchet ms",verdana,arial,sans-serif;font-size:16px;}#graph-div g.classGroup text{fill:#9370DB;fill:#131300;stroke:none;font-family:"trebuchet ms",verdana,arial,sans-serif;font-size:10px;}#graph-div g.classGroup text .title{font-weight:bolder;}#graph-div .classTitle{font-weight:bolder;}#graph-div .node rect,#graph-div .node circle,#graph-div .node ellipse,#graph-div .node polygon,#graph-div .node path{fill:#ECECFF;stroke:#9370DB;stroke-width:1px;}#graph-div .divider{stroke:#9370DB;stroke:1;}#graph-div g.clickable{cursor:pointer;}#graph-div g.classGroup rect{fill:#ECECFF;stroke:#9370DB;}#graph-div g.classGroup line{stroke:#9370DB;stroke-width:1;}#graph-div .classLabel .box{stroke:none;stroke-width:0;fill:#ECECFF;opacity:0.5;}#graph-div .classLabel .label{fill:#9370DB;font-size:10px;}#graph-div .relation{stroke:#333333;stroke-width:1;fill:none;}#graph-div .dashed-line{stroke-dasharray:3;}#graph-div #compositionStart,#graph-div .composition{fill:#333333!important;stroke:#333333!important;stroke-width:1;}#graph-div #compositionEnd,#graph-div .composition{fill:#333333!important;stroke:#333333!important;stroke-width:1;}#graph-div #dependencyStart,#graph-div .dependency{fill:#333333!important;stroke:#333333!important;stroke-width:1;}#graph-div #dependencyStart,#graph-div .dependency{fill:#333333!important;stroke:#333333!important;stroke-width:1;}#graph-div #extensionStart,#graph-div .extension{fill:#333333!important;stroke:#333333!important;stroke-width:1;}#graph-div #extensionEnd,#graph-div .extension{fill:#333333!important;stroke:#333333!important;stroke-width:1;}#graph-div #aggregationStart,#graph-div .aggregation{fill:#ECECFF!important;stroke:#333333!important;stroke-width:1;}#graph-div #aggregationEnd,#graph-div .aggregation{fill:#ECECFF!important;stroke:#333333!important;stroke-width:1;}#graph-div .edgeTerminals{font-size:11px;}#graph-div :root{--mermaid-font-family:"trebuchet ms",verdana,arial,sans-serif;}</style><g></g><defs><marker id="extensionStart" class="extension" refX="0" refY="7" markerWidth="190" markerHeight="240" orient="auto"><path d="M 1,7 L18,13 V 1 Z"></path></marker></defs><defs><marker id="extensionEnd" refX="19" refY="7" markerWidth="20" markerHeight="28" orient="auto"><path d="M 1,1 V 13 L18,7 Z"></path></marker></defs><defs><marker id="compositionStart" class="extension" refX="0" refY="7" markerWidth="190" markerHeight="240" orient="auto"><path d="M 18,7 L9,13 L1,7 L9,1 Z"></path></marker></defs><defs><marker id="compositionEnd" refX="19" refY="7" markerWidth="20" markerHeight="28" orient="auto"><path d="M 18,7 L9,13 L1,7 L9,1 Z"></path></marker></defs><defs><marker id="aggregationStart" class="extension" refX="0" refY="7" markerWidth="190" markerHeight="240" orient="auto"><path d="M 18,7 L9,13 L1,7 L9,1 Z"></path></marker></defs><defs><marker id="aggregationEnd" refX="19" refY="7" markerWidth="20" markerHeight="28" orient="auto"><path d="M 18,7 L9,13 L1,7 L9,1 Z"></path></marker></defs><defs><marker id="dependencyStart" class="extension" refX="0" refY="7" markerWidth="190" markerHeight="240" orient="auto"><path d="M 5,7 L9,13 L1,7 L9,1 Z"></path></marker></defs><defs><marker id="dependencyEnd" refX="19" refY="7" markerWidth="20" markerHeight="28" orient="auto"><path d="M 18,7 L9,13 L14,7 L9,1 Z"></path></marker></defs><g id="classid-AtlasEntity-9" class="classGroup" transform="translate(0.4765625,0 )"><rect x="0" y="0" width="108.109375" height="46.625" class=" "></rect><text y="15" x="0"><tspan x="5">«abstract»</tspan><tspan class="title" dy="10" x="5">AtlasEntity</tspan></text><line x1="0" y1="31.625" y2="31.625" x2="108.109375"></line><text x="5" y="41.625" fill="white" class="classText"></text><line x1="0" y1="36.625" y2="36.625" x2="108.109375"></line><text x="5" y="51.625" fill="white" class="classText"></text></g><g id="classid-Referenceable-10" class="classGroup" transform="translate(0,96.625 )"><rect x="0" y="0" width="109.0625" height="48.25" class=" "></rect><text y="15" x="0"><tspan class="title" x="20.5625">Referenceable</tspan></text><line x1="0" y1="21.625" y2="21.625" x2="109.0625"></line><text x="5" y="31.625" fill="white" class="classText"><tspan x="5">String qualifiedName</tspan></text><line x1="0" y1="38.25" y2="38.25" x2="109.0625"></line><text x="5" y="53.25" fill="white" class="classText"></text></g><g id="classid-DataSet-11" class="classGroup" transform="translate(72.58984375,379.75 )"><rect x="0" y="0" width="45.875" height="36.625" class=" "></rect><text y="15" x="0"><tspan class="title" x="5">DataSet</tspan></text><line x1="0" y1="21.625" y2="21.625" x2="45.875"></line><text x="5" y="31.625" fill="white" class="classText"></text><line x1="0" y1="26.625" y2="26.625" x2="45.875"></line><text x="5" y="41.625" fill="white" class="classText"></text></g><g id="classid-fs_path-12" class="classGroup" transform="translate(63.39453125,471.375 )"><rect x="0" y="0" width="64.265625" height="48.25" class=" "></rect><text y="15" x="0"><tspan class="title" x="14.671875">fs_path</tspan></text><line x1="0" y1="21.625" y2="21.625" x2="64.265625"></line><text x="5" y="31.625" fill="white" class="classText"><tspan x="5">String path</tspan></text><line x1="0" y1="38.25" y2="38.25" x2="64.265625"></line><text x="5" y="53.25" fill="white" class="classText"></text></g><g id="classid-WARC_FILE-13" class="classGroup" transform="translate(138.546875,574.625 )"><rect x="0" y="0" width="93.984375" height="48.25" class=" "></rect><text y="15" x="0"><tspan class="title" x="20.4453125">WARC_FILE</tspan></text><line x1="0" y1="21.625" y2="21.625" x2="93.984375"></line><text x="5" y="31.625" fill="white" class="classText"><tspan x="5">String crawl_date</tspan></text><line x1="0" y1="38.25" y2="38.25" x2="93.984375"></line><text x="5" y="53.25" fill="white" class="classText"></text></g><g id="classid-WARC_RECORD-14" class="classGroup" transform="translate(56.05859375,672.875 )"><rect x="0" y="0" width="132.078125" height="78.25" class=" "></rect><text y="15" x="0"><tspan class="title" x="30.6640625">WARC_RECORD</tspan></text><line x1="0" y1="21.625" y2="21.625" x2="132.078125"></line><text x="5" y="31.625" fill="white" class="classText"><tspan x="5">String content_type_norm</tspan><tspan x="5" dy="10">String content_language</tspan><tspan x="5" dy="10">String source_file_offset</tspan><tspan x="5" dy="10">...</tspan></text><line x1="0" y1="68.25" y2="68.25" x2="132.078125"></line><text x="5" y="83.25" fill="white" class="classText"></text></g><g id="classid-Asset-15" class="classGroup" transform="translate(62.33984375,194.875 )"><rect x="0" y="0" width="68.484375" height="48.25" class=" "></rect><text y="15" x="0"><tspan class="title" x="21.90625">Asset</tspan></text><line x1="0" y1="21.625" y2="21.625" x2="68.484375"></line><text x="5" y="31.625" fill="white" class="classText"><tspan x="5">String name</tspan></text><line x1="0" y1="38.25" y2="38.25" x2="68.484375"></line><text x="5" y="53.25" fill="white" class="classText"></text></g><g id="classid-Process-16" class="classGroup" transform="translate(160.328125,293.125 )"><rect x="0" y="0" width="45.28125" height="36.625" class=" "></rect><text y="15" x="0"><tspan class="title" x="5">Process</tspan></text><line x1="0" y1="21.625" y2="21.625" x2="45.28125"></line><text x="5" y="31.625" fill="white" class="classText"></text><line x1="0" y1="26.625" y2="26.625" x2="45.28125"></line><text x="5" y="41.625" fill="white" class="classText"></text></g><g id="classid-CRAWLING_PROCESS-17" class="classGroup" transform="translate(177.66015625,466.375 )"><rect x="0" y="0" width="106" height="58.25" class=" "></rect><text y="15" x="0"><tspan class="title" x="5">CRAWLING_PROCESS</tspan></text><line x1="0" y1="21.625" y2="21.625" x2="106"></line><text x="5" y="31.625" fill="white" class="classText"><tspan x="5">String[] urls</tspan><tspan x="5" dy="10">String crawler_info</tspan></text><line x1="0" y1="48.25" y2="48.25" x2="106"></line><text x="5" y="63.25" fill="white" class="classText"></text></g><path d="M54.53125,46.625L54.53125,50.791666666666664C54.53125,54.958333333333336,54.53125,63.291666666666664,54.53125,71.625C54.53125,79.95833333333333,54.53125,88.29166666666667,54.53125,92.45833333333333L54.53125,96.625" id="edge7" class="relation" marker-start="url(#extensionStart)"></path><path d="M95.52734375,416.375L95.52734375,420.5416666666667C95.52734375,424.7083333333333,95.52734375,433.0416666666667,95.52734375,442.2083333333333C95.52734375,451.375,95.52734375,461.375,95.52734375,466.375L95.52734375,471.375" id="edge8" class="relation" marker-start="url(#extensionStart)"></path><path d="M95.52734375,519.625L95.52734375,524.625C95.52734375,529.625,95.52734375,539.625,103.16192549300256,548.7916666666666C110.79650723600508,557.9583333333334,126.06567072201017,566.2916666666666,133.7002524650127,570.4583333333334L141.33483420801525,574.625" id="edge9" class="relation" marker-start="url(#extensionStart)"></path><path d="M38.04698433524173,144.875L35.19996090436811,149.04166666666666C32.352937473494485,153.20833333333334,26.658890611747243,161.54166666666666,23.811867180873623,173.89583333333334C20.96484375,186.25,20.96484375,202.625,20.96484375,219C20.96484375,235.375,20.96484375,251.75,20.96484375,267.15625C20.96484375,282.5625,20.96484375,297,20.96484375,311.4375C20.96484375,325.875,20.96484375,340.3125,20.96484375,354.75C20.96484375,369.1875,20.96484375,383.625,20.96484375,398.0625C20.96484375,412.5,20.96484375,426.9375,20.96484375,443.1770833333333C20.96484375,459.4166666666667,20.96484375,477.4583333333333,20.96484375,495.5C20.96484375,513.5416666666666,20.96484375,531.5833333333334,20.96484375,548.7916666666666C20.96484375,566,20.96484375,582.375,20.96484375,598.75C20.96484375,615.125,20.96484375,631.5,27.536176596003898,643.8541666666666C34.107509442007796,656.2083333333334,47.25017513401559,664.5416666666666,53.8215079800195,668.7083333333334L60.392840826023395,672.875" id="edge10" class="relation" marker-start="url(#extensionStart)"></path><path d="M75.18214257315522,144.875L78.74879068596267,149.04166666666666C82.31543879877015,153.20833333333334,89.44873502438507,161.54166666666666,93.01538313719254,169.875C96.58203125,178.20833333333334,96.58203125,186.54166666666666,96.58203125,190.70833333333334L96.58203125,194.875" id="edge11" class="relation" marker-start="url(#extensionStart)"></path><path d="M130.82421875,238.47229256160978L139.51497395833334,243.41441046800813C148.20572916666666,248.3565283744065,165.58723958333334,258.24076418720324,174.27799479166666,267.3495487602683C182.96875,276.4583333333333,182.96875,284.7916666666667,182.96875,288.9583333333333L182.96875,293.125" id="edge12" class="relation" marker-start="url(#extensionStart)"></path><path d="M81.36003101145039,243.125L78.73101542620866,247.29166666666666C76.10199984096693,251.45833333333334,70.84396867048346,259.7916666666667,68.21495308524173,271.1770833333333C65.5859375,282.5625,65.5859375,297,65.5859375,311.4375C65.5859375,325.875,65.5859375,340.3125,68.46630366161617,351.6979166666667C71.34666982323232,363.0833333333333,77.10740214646465,371.4166666666667,79.98776830808082,375.5833333333333L82.86813446969697,379.75" id="edge13" class="relation" marker-start="url(#extensionStart)"></path><path d="M203.1326490349928,329.75L207.72056690416068,333.9166666666667C212.30848477332856,338.0833333333333,221.48432051166427,346.4166666666667,226.07223838083212,357.8020833333333C230.66015625,369.1875,230.66015625,383.625,230.66015625,398.0625C230.66015625,412.5,230.66015625,426.9375,230.66015625,438.3229166666667C230.66015625,449.7083333333333,230.66015625,458.0416666666667,230.66015625,462.2083333333333L230.66015625,466.375" id="edge14" class="relation" marker-start="url(#extensionStart)"></path><path d="M185.5390625,622.875L185.5390625,627.0416666666666C185.5390625,631.2083333333334,185.5390625,639.5416666666666,181.41681388076674,647.875C177.29456526153345,656.2083333333334,169.05006802306693,664.5416666666666,164.92781940383364,668.7083333333334L160.80557078460038,672.875" id="edge15" class="relation" marker-start="url(#compositionStart)"></path><g class="classLabel"><rect class="box" x="162.875" y="639.59375" width="38.171875" height="16.625"></rect><text class="label" x="181.9636602653738" y="651.4889279036774" fill="red" text-anchor="middle">records</text></g><g class="cardinality"><text class="type2" x="173.151343246203" y="667.5054653529068" fill="black" font-size="6">1..*</text></g><path d="M160.328125,326.5249000841397L153.26888020833334,331.22908340344975C146.20963541666666,335.9332667227598,132.09114583333334,345.34163336137993,122.87265981992545,354.21248334735657C113.65417380651756,363.0833333333333,109.33569136303511,371.4166666666667,107.1764501412939,375.5833333333333L105.01720891955267,379.75" id="edge16" class="relation" marker-start="url(#aggregationStart)"></path><g class="classLabel"><rect class="box" x="111.25" y="336.546875" width="32.375" height="16.625"></rect><text class="label" x="127.43465500986122" y="348.4446545916617" fill="red" text-anchor="middle">inputs</text></g><g class="cardinality"><text class="type2" x="115.20786175097187" y="370.95223921276056" fill="black" font-size="6">*</text></g><path d="M174.56561147186147,329.75L172.65363455988458,333.9166666666667C170.74165764790766,338.0833333333333,166.91770382395381,346.4166666666667,157.56757587031026,355.351456056927C148.21744791666666,364.2862454471874,133.34114583333334,373.82249089437477,125.90299479166667,378.5906136179685L118.46484375,383.3587363415621" id="edge17" class="relation" marker-start="url(#aggregationStart)"></path><g class="classLabel"><rect class="box" x="132.921875" y="349.734375" width="38.859375" height="16.625"></rect><text class="label" x="152.35778643397904" y="361.6321393316784" fill="red" text-anchor="middle">outputs</text></g><g class="cardinality"><text class="type2" x="131.68664490581483" y="380.82220836101607" fill="black" font-size="6">*</text></g><path d="M230.66015625,524.625L230.66015625,528.7916666666666C230.66015625,532.9583333333334,230.66015625,541.2916666666666,226.8330914705259,549.625C223.00602669105174,557.9583333333334,215.35189713210346,566.2916666666666,211.52483235262935,570.4583333333334L207.6977675731552,574.625" id="edge18" class="relation" marker-start="url(#aggregationStart)"></path><g class="classLabel"><rect class="box" x="208.203125" y="541.015625" width="38.859375" height="16.625"></rect><text class="label" x="227.63466462448497" y="552.9189643911762" fill="red" text-anchor="middle">outputs</text></g><g class="cardinality"><text class="type2" x="219.8358845295921" y="568.8012454763392" fill="black" font-size="6">*</text></g></svg>